<svg width="20" height="20" viewBox="0 0 20 20" fill="none" xmlns="http://www.w3.org/2000/svg">
<g clip-path="url(#clip0_663_858)">
<path d="M10 9.99996C9.54274 10.8876 8.92966 11.6859 8.19001 12.3566C7.72388 12.8229 7.12993 13.1405 6.4833 13.2692C5.83667 13.3979 5.1664 13.3319 4.55725 13.0797C3.94811 12.8274 3.42745 12.4002 3.06114 11.852C2.69482 11.3038 2.4993 10.6593 2.4993 9.99996C2.4993 9.34065 2.69482 8.69614 3.06114 8.14796C3.42745 7.59977 3.94811 7.17253 4.55725 6.92027C5.1664 6.668 5.83667 6.60205 6.4833 6.73075C7.12993 6.85945 7.72388 7.17702 8.19001 7.64329C8.92966 8.31407 9.54274 9.11231 10 9.99996ZM10 9.99996C10.4573 9.11231 11.0704 8.31407 11.81 7.64329C12.2761 7.17702 12.8701 6.85945 13.5167 6.73075C14.1633 6.60205 14.8336 6.668 15.4428 6.92027C16.0519 7.17253 16.5726 7.59977 16.9389 8.14796C17.3052 8.69614 17.5007 9.34065 17.5007 9.99996C17.5007 10.6593 17.3052 11.3038 16.9389 11.852C16.5726 12.4002 16.0519 12.8274 15.4428 13.0797C14.8336 13.3319 14.1633 13.3979 13.5167 13.2692C12.8701 13.1405 12.2761 12.8229 11.81 12.3566C11.0704 11.6859 10.4573 10.8876 10 9.99996Z" stroke="white" stroke-width="1.5" stroke-linecap="round" stroke-linejoin="round"/>
</g>
<defs>
<clipPath id="clip0_663_858">
<rect width="20" height="20" fill="white"/>
</clipPath>
</defs>
</svg>
