<svg width="20" height="20" viewBox="0 0 20 20" fill="none" xmlns="http://www.w3.org/2000/svg">
<path d="M16.4297 4.40157L10.1797 2.52657C10.0864 2.49856 9.98781 2.49275 9.89185 2.50961C9.79589 2.52647 9.70521 2.56553 9.62703 2.62367C9.54885 2.68181 9.48535 2.75742 9.44159 2.84446C9.39783 2.93151 9.37503 3.02758 9.375 3.12501V11.5828C8.73493 11.0103 7.91775 10.6749 7.06005 10.6325C6.20235 10.5901 5.35608 10.8434 4.6627 11.35C3.96931 11.8566 3.4708 12.5859 3.2505 13.4159C3.0302 14.2459 3.10144 15.1264 3.45233 15.9102C3.80321 16.694 4.41248 17.3336 5.1783 17.7221C5.94413 18.1107 6.8201 18.2246 7.65983 18.0449C8.49956 17.8651 9.25217 17.4026 9.79187 16.7347C10.3316 16.0667 10.6257 15.2338 10.625 14.375V7.71485L16.0703 9.34845C16.1636 9.37646 16.2622 9.38226 16.3582 9.3654C16.4541 9.34855 16.5448 9.30949 16.623 9.25135C16.7011 9.19321 16.7647 9.1176 16.8084 9.03055C16.8522 8.9435 16.875 8.84743 16.875 8.75001V5.00001C16.875 4.86564 16.8316 4.73487 16.7514 4.62707C16.6712 4.51928 16.5584 4.4402 16.4297 4.40157ZM6.875 16.875C6.38055 16.875 5.8972 16.7284 5.48608 16.4537C5.07495 16.179 4.75452 15.7885 4.5653 15.3317C4.37608 14.8749 4.32658 14.3722 4.42304 13.8873C4.5195 13.4023 4.7576 12.9569 5.10723 12.6072C5.45687 12.2576 5.90232 12.0195 6.38728 11.923C6.87223 11.8266 7.37489 11.8761 7.83171 12.0653C8.28853 12.2545 8.67897 12.575 8.95368 12.9861C9.22838 13.3972 9.375 13.8806 9.375 14.375C9.375 15.038 9.11161 15.6739 8.64277 16.1428C8.17393 16.6116 7.53804 16.875 6.875 16.875ZM15.625 7.91016L10.625 6.41016V3.96485L15.625 5.46876V7.91016Z" fill="white"/>
</svg>
