<svg width="44" height="44" viewBox="0 0 44 44" fill="none" xmlns="http://www.w3.org/2000/svg">
<g filter="url(#filter0_dd_578_250)">
<path d="M22.5 9C23.3284 9 24 9.67157 24 10.5V17H30.5C31.3284 17 32 17.6716 32 18.5V19.5C32 20.3284 31.3284 21 30.5 21H24V27.5C24 28.3284 23.3284 29 22.5 29H21.5C20.6716 29 20 28.3284 20 27.5V21H13.5C12.6716 21 12 20.3284 12 19.5V18.5C12 17.6716 12.6716 17 13.5 17H20V10.5C20 9.67157 20.6716 9 21.5 9H22.5Z" fill="white"/>
</g>
<defs>
<filter id="filter0_dd_578_250" x="-2" y="-2" width="48" height="48" filterUnits="userSpaceOnUse" color-interpolation-filters="sRGB">
<feFlood flood-opacity="0" result="BackgroundImageFix"/>
<feColorMatrix in="SourceAlpha" type="matrix" values="0 0 0 0 0 0 0 0 0 0 0 0 0 0 0 0 0 0 127 0" result="hardAlpha"/>
<feOffset dy="3"/>
<feGaussianBlur stdDeviation="6"/>
<feColorMatrix type="matrix" values="0 0 0 0 0 0 0 0 0 0 0 0 0 0 0 0 0 0 0.25 0"/>
<feBlend mode="normal" in2="BackgroundImageFix" result="effect1_dropShadow_578_250"/>
<feColorMatrix in="SourceAlpha" type="matrix" values="0 0 0 0 0 0 0 0 0 0 0 0 0 0 0 0 0 0 127 0" result="hardAlpha"/>
<feOffset dy="3"/>
<feColorMatrix type="matrix" values="0 0 0 0 0.308333 0 0 0 0 0.308333 0 0 0 0 0.308333 0 0 0 0.6 0"/>
<feBlend mode="normal" in2="effect1_dropShadow_578_250" result="effect2_dropShadow_578_250"/>
<feBlend mode="normal" in="SourceGraphic" in2="effect2_dropShadow_578_250" result="shape"/>
</filter>
</defs>
</svg>
