<svg width="205" height="160" viewBox="0 0 205 160" fill="none" xmlns="http://www.w3.org/2000/svg">
<path d="M88.2388 125.62C80.3638 133.484 80.3638 146.239 88.2388 154.105C96.1182 161.965 108.89 161.965 116.768 154.105C124.644 146.239 124.644 133.484 116.768 125.62C108.891 117.757 96.1188 117.757 88.2388 125.62Z" fill="white" fill-opacity="0.3"/>
<path d="M88.5923 125.975C96.2772 118.306 108.732 118.306 116.415 125.975C124.095 133.643 124.095 146.08 116.415 153.751C108.732 161.416 96.2765 161.416 88.5923 153.751C80.913 146.08 80.9132 133.643 88.5923 125.975Z" stroke="white" stroke-opacity="0.1"/>
<path data-name="first-bar" d="M102.504 77.7246C85.8851 77.7246 70.2508 84.1871 58.5052 95.9266C53.8908 100.531 53.8908 107.995 58.5052 112.597C63.1158 117.203 70.5871 117.203 75.2014 112.597C82.487 105.313 92.1858 101.302 102.503 101.302C112.821 101.302 122.519 105.313 129.805 112.597C132.113 114.9 135.142 116.049 138.156 116.049C141.184 116.049 144.196 114.899 146.502 112.597C151.117 107.995 151.117 100.532 146.502 95.9266C134.757 84.1871 119.123 77.7246 102.504 77.7246Z" fill="white" fill-opacity="0.3"/>
<path data-name="first-bar" d="M102.503 78.2246C118.732 78.2246 134.013 84.436 145.6 95.7383L146.149 96.2803C150.568 100.69 150.568 107.837 146.15 112.243H146.149C143.94 114.448 141.057 115.549 138.156 115.549C135.269 115.549 132.368 114.448 130.158 112.243H130.159C122.779 104.865 112.954 100.802 102.503 100.802C92.3801 100.802 82.8418 104.615 75.5464 111.562L74.8481 112.243C70.4289 116.654 63.2742 116.653 58.8589 112.243H58.8579C54.4397 107.837 54.4394 100.69 58.8579 96.2803H58.8589C70.5104 84.6349 86.0172 78.2247 102.503 78.2246Z" stroke="white" stroke-opacity="0.1"/>
<path data-name="second-bar" d="M102.504 38.9053C75.4948 38.9053 50.1043 49.4072 31.0087 68.4753C26.3987 73.0801 26.3987 80.5448 31.0087 85.1465C35.6231 89.7506 43.0993 89.7506 47.7049 85.1465C62.338 70.529 81.8036 62.4814 102.504 62.4814C123.195 62.4814 142.662 70.529 157.297 85.1465C159.6 87.4492 162.63 88.5993 165.642 88.5993C168.671 88.5993 171.686 87.4486 173.993 85.1465C178.601 80.5448 178.601 73.0801 173.993 68.4753C154.897 49.4072 129.515 38.9053 102.504 38.9053Z" fill="white" fill-opacity="0.3"/>
<path data-name="second-bar" d="M102.504 39.4053C128.963 39.4053 153.848 49.5308 172.745 67.9463L173.639 68.8291C178.052 73.2387 178.052 80.3867 173.639 84.793C171.43 86.9975 168.544 88.0996 165.642 88.0996C162.757 88.0996 159.855 86.9977 157.651 84.793C142.922 70.0818 123.327 61.9815 102.504 61.9814C81.6715 61.9814 62.079 70.0818 47.352 84.793H47.351C42.9409 89.2015 35.7811 89.2023 31.3618 84.793C27.0854 80.5243 26.9518 73.6823 30.9614 69.25L31.3618 68.8291C50.3635 49.8547 75.6274 39.4053 102.504 39.4053Z" stroke="white" stroke-opacity="0.1"/>
</svg>
